<mxfile host="Electron" agent="Mozilla/5.0 (X11; Linux x86_64) AppleWebKit/537.36 (KHTML, like Gecko) draw.io/28.2.5 Chrome/138.0.7204.251 Electron/37.6.1 Safari/537.36" version="28.2.5">
  <diagram name="第 1 页" id="A2wYnKDMZFF023bxGnZ8">
    <mxGraphModel dx="3679" dy="1576" grid="1" gridSize="10" guides="1" tooltips="1" connect="1" arrows="1" fold="1" page="1" pageScale="1" pageWidth="827" pageHeight="1169" background="none" math="0" shadow="0">
      <root>
        <mxCell id="0" />
        <mxCell id="1" parent="0" />
        <mxCell id="hMaNkUOU6OZyKy6Mbnef-42" value="" style="rounded=0;whiteSpace=wrap;html=1;" vertex="1" parent="1">
          <mxGeometry x="-680" y="70" width="2790" height="1070" as="geometry" />
        </mxCell>
        <mxCell id="YZu31wHBDfyEzBDPMWce-50" value="AnnotatedBeanDefinitionReader" style="shape=umlLifeline;perimeter=lifelinePerimeter;whiteSpace=wrap;html=1;container=1;dropTarget=0;collapsible=0;recursiveResize=0;outlineConnect=0;portConstraint=eastwest;newEdgeStyle={&quot;curved&quot;:0,&quot;rounded&quot;:0};fontSize=20;fontStyle=0" parent="1" vertex="1">
          <mxGeometry x="690" y="120" width="300" height="860" as="geometry" />
        </mxCell>
        <mxCell id="hMaNkUOU6OZyKy6Mbnef-27" value="registerAnnotationConfigProcessors()" style="html=1;verticalAlign=bottom;endArrow=block;curved=0;rounded=0;entryX=0;entryY=0;entryDx=0;entryDy=5;fontSize=20;" edge="1" target="hMaNkUOU6OZyKy6Mbnef-26" parent="YZu31wHBDfyEzBDPMWce-50">
          <mxGeometry relative="1" as="geometry">
            <mxPoint x="155" y="279" as="sourcePoint" />
          </mxGeometry>
        </mxCell>
        <mxCell id="hMaNkUOU6OZyKy6Mbnef-28" value="return" style="html=1;verticalAlign=bottom;endArrow=open;dashed=1;endSize=8;curved=0;rounded=0;exitX=0;exitY=1;exitDx=0;exitDy=-5;fontSize=20;" edge="1" source="hMaNkUOU6OZyKy6Mbnef-26" parent="YZu31wHBDfyEzBDPMWce-50">
          <mxGeometry relative="1" as="geometry">
            <mxPoint x="155" y="349" as="targetPoint" />
          </mxGeometry>
        </mxCell>
        <mxCell id="-QrxRBGIXTvyxB3OS5xk-18" value="AnnotationConfigApplicationContext" style="shape=umlLifeline;perimeter=lifelinePerimeter;whiteSpace=wrap;html=1;container=1;dropTarget=0;collapsible=0;recursiveResize=0;outlineConnect=0;portConstraint=eastwest;newEdgeStyle={&quot;curved&quot;:0,&quot;rounded&quot;:0};fontSize=20;fontStyle=0" parent="1" vertex="1">
          <mxGeometry x="-50" y="120" width="350" height="850" as="geometry" />
        </mxCell>
        <mxCell id="YZu31wHBDfyEzBDPMWce-24" value="" style="group;fontColor=#000000;fontSize=18;" parent="1" vertex="1" connectable="0">
          <mxGeometry x="-160" y="180" width="1050" height="1270" as="geometry" />
        </mxCell>
        <mxCell id="-QrxRBGIXTvyxB3OS5xk-58" value="AnnotationConfigApplicationContext创建过程" style="text;html=1;whiteSpace=wrap;strokeColor=none;fillColor=none;align=center;verticalAlign=middle;rounded=0;fontSize=20;fontStyle=1" parent="YZu31wHBDfyEzBDPMWce-24" vertex="1">
          <mxGeometry x="630" y="870" width="510" height="30" as="geometry" />
        </mxCell>
        <mxCell id="hMaNkUOU6OZyKy6Mbnef-10" value="" style="html=1;points=[[0,0,0,0,5],[0,1,0,0,-5],[1,0,0,0,5],[1,1,0,0,-5]];perimeter=orthogonalPerimeter;outlineConnect=0;targetShapes=umlLifeline;portConstraint=eastwest;newEdgeStyle={&quot;curved&quot;:0,&quot;rounded&quot;:0};" vertex="1" parent="YZu31wHBDfyEzBDPMWce-24">
          <mxGeometry x="280" y="70" width="10" height="450" as="geometry" />
        </mxCell>
        <mxCell id="hMaNkUOU6OZyKy6Mbnef-16" value="&lt;font style=&quot;color: rgb(255, 0, 0);&quot;&gt;在父类中调用：new()&lt;/font&gt;" style="html=1;verticalAlign=bottom;endArrow=block;curved=0;rounded=0;entryX=0;entryY=0;entryDx=0;entryDy=5;fontSize=20;" edge="1" target="hMaNkUOU6OZyKy6Mbnef-15" parent="YZu31wHBDfyEzBDPMWce-24">
          <mxGeometry relative="1" as="geometry">
            <mxPoint x="290" y="85" as="sourcePoint" />
          </mxGeometry>
        </mxCell>
        <mxCell id="hMaNkUOU6OZyKy6Mbnef-17" value="&lt;font style=&quot;color: rgb(255, 0, 0);&quot;&gt;返回Bean工厂&lt;/font&gt;" style="html=1;verticalAlign=bottom;endArrow=open;dashed=1;endSize=8;curved=0;rounded=0;exitX=0;exitY=1;exitDx=0;exitDy=-5;fontSize=20;" edge="1" source="hMaNkUOU6OZyKy6Mbnef-15" parent="YZu31wHBDfyEzBDPMWce-24">
          <mxGeometry relative="1" as="geometry">
            <mxPoint x="290" y="155" as="targetPoint" />
          </mxGeometry>
        </mxCell>
        <mxCell id="hMaNkUOU6OZyKy6Mbnef-22" value="" style="html=1;points=[[0,0,0,0,5],[0,1,0,0,-5],[1,0,0,0,5],[1,1,0,0,-5]];perimeter=orthogonalPerimeter;outlineConnect=0;targetShapes=umlLifeline;portConstraint=eastwest;newEdgeStyle={&quot;curved&quot;:0,&quot;rounded&quot;:0};" vertex="1" parent="YZu31wHBDfyEzBDPMWce-24">
          <mxGeometry x="995" y="205" width="10" height="105" as="geometry" />
        </mxCell>
        <mxCell id="hMaNkUOU6OZyKy6Mbnef-23" value="&lt;font style=&quot;font-size: 20px;&quot;&gt;new()&lt;/font&gt;" style="html=1;verticalAlign=bottom;endArrow=block;curved=0;rounded=0;entryX=0;entryY=0;entryDx=0;entryDy=5;" edge="1" target="hMaNkUOU6OZyKy6Mbnef-22" parent="YZu31wHBDfyEzBDPMWce-24">
          <mxGeometry relative="1" as="geometry">
            <mxPoint x="290" y="210" as="sourcePoint" />
          </mxGeometry>
        </mxCell>
        <mxCell id="hMaNkUOU6OZyKy6Mbnef-24" value="return" style="html=1;verticalAlign=bottom;endArrow=open;dashed=1;endSize=8;curved=0;rounded=0;exitX=0;exitY=1;exitDx=0;exitDy=-5;fontSize=20;" edge="1" source="hMaNkUOU6OZyKy6Mbnef-22" parent="YZu31wHBDfyEzBDPMWce-24" target="hMaNkUOU6OZyKy6Mbnef-10">
          <mxGeometry relative="1" as="geometry">
            <mxPoint x="290" y="280" as="targetPoint" />
          </mxGeometry>
        </mxCell>
        <mxCell id="hMaNkUOU6OZyKy6Mbnef-34" value="&lt;font style=&quot;font-size: 20px;&quot;&gt;new()&lt;/font&gt;" style="html=1;verticalAlign=bottom;endArrow=block;curved=0;rounded=0;entryX=0;entryY=0;entryDx=0;entryDy=5;" edge="1" target="hMaNkUOU6OZyKy6Mbnef-33" parent="YZu31wHBDfyEzBDPMWce-24">
          <mxGeometry relative="1" as="geometry">
            <mxPoint x="290" y="395" as="sourcePoint" />
          </mxGeometry>
        </mxCell>
        <mxCell id="hMaNkUOU6OZyKy6Mbnef-35" value="return" style="html=1;verticalAlign=bottom;endArrow=open;dashed=1;endSize=8;curved=0;rounded=0;exitX=0;exitY=1;exitDx=0;exitDy=-5;fontSize=20;" edge="1" source="hMaNkUOU6OZyKy6Mbnef-33" parent="YZu31wHBDfyEzBDPMWce-24">
          <mxGeometry relative="1" as="geometry">
            <mxPoint x="290" y="465" as="targetPoint" />
          </mxGeometry>
        </mxCell>
        <mxCell id="YZu31wHBDfyEzBDPMWce-42" value="DefaultListableBeanFactory" style="shape=umlLifeline;perimeter=lifelinePerimeter;whiteSpace=wrap;html=1;container=1;dropTarget=0;collapsible=0;recursiveResize=0;outlineConnect=0;portConstraint=eastwest;newEdgeStyle={&quot;curved&quot;:0,&quot;rounded&quot;:0};fontSize=20;fontStyle=0;fontColor=#FF0000;" parent="1" vertex="1">
          <mxGeometry x="390" y="120" width="260" height="865" as="geometry" />
        </mxCell>
        <mxCell id="hMaNkUOU6OZyKy6Mbnef-15" value="" style="html=1;points=[[0,0,0,0,5],[0,1,0,0,-5],[1,0,0,0,5],[1,1,0,0,-5]];perimeter=orthogonalPerimeter;outlineConnect=0;targetShapes=umlLifeline;portConstraint=eastwest;newEdgeStyle={&quot;curved&quot;:0,&quot;rounded&quot;:0};" vertex="1" parent="YZu31wHBDfyEzBDPMWce-42">
          <mxGeometry x="125" y="140" width="10" height="80" as="geometry" />
        </mxCell>
        <mxCell id="-QrxRBGIXTvyxB3OS5xk-56" value="create()" style="html=1;verticalAlign=bottom;endArrow=block;curved=0;rounded=0;fontSize=20;" parent="1" edge="1">
          <mxGeometry relative="1" as="geometry">
            <mxPoint x="-615" y="276" as="sourcePoint" />
            <mxPoint x="-335" y="276" as="targetPoint" />
          </mxGeometry>
        </mxCell>
        <mxCell id="hMaNkUOU6OZyKy6Mbnef-13" value="" style="group;fontSize=20;" vertex="1" connectable="0" parent="1">
          <mxGeometry x="-499.17" y="120" width="339.17" height="850" as="geometry" />
        </mxCell>
        <mxCell id="-QrxRBGIXTvyxB3OS5xk-1" value="&lt;font style=&quot;color: rgb(0, 0, 0); font-weight: normal;&quot;&gt;DefaultApplicationContextFactory&lt;/font&gt;" style="shape=umlLifeline;whiteSpace=wrap;html=1;container=0;dropTarget=0;collapsible=0;recursiveResize=0;outlineConnect=0;portConstraint=eastwest;newEdgeStyle={&quot;curved&quot;:0,&quot;rounded&quot;:0};fontSize=20;fontStyle=1;points=[[0,0,0,0,5],[0,1,0,0,-5],[1,0,0,0,5],[1,1,0,0,-5]];perimeter=rectanglePerimeter;targetShapes=umlLifeline;participant=label;fontColor=#FF0000;" parent="hMaNkUOU6OZyKy6Mbnef-13" vertex="1">
          <mxGeometry width="339.17" height="850" as="geometry" />
        </mxCell>
        <mxCell id="hMaNkUOU6OZyKy6Mbnef-11" value="&lt;font style=&quot;font-size: 20px;&quot;&gt;new()&lt;/font&gt;" style="html=1;verticalAlign=bottom;endArrow=block;curved=0;rounded=0;entryX=0;entryY=0;entryDx=0;entryDy=5;" edge="1" target="hMaNkUOU6OZyKy6Mbnef-10" parent="-QrxRBGIXTvyxB3OS5xk-1">
          <mxGeometry relative="1" as="geometry">
            <mxPoint x="174.17000000000002" y="135" as="sourcePoint" />
          </mxGeometry>
        </mxCell>
        <mxCell id="-QrxRBGIXTvyxB3OS5xk-2" value="" style="html=1;points=[[0,0,0,0,5],[0,1,0,0,-5],[1,0,0,0,5],[1,1,0,0,-5]];perimeter=orthogonalPerimeter;outlineConnect=0;targetShapes=umlLifeline;portConstraint=eastwest;newEdgeStyle={&quot;curved&quot;:0,&quot;rounded&quot;:0};" parent="hMaNkUOU6OZyKy6Mbnef-13" vertex="1">
          <mxGeometry x="164.57999999999998" y="100" width="10" height="670" as="geometry" />
        </mxCell>
        <mxCell id="hMaNkUOU6OZyKy6Mbnef-12" value="&lt;span style=&quot;font-size: 20px;&quot;&gt;return&lt;/span&gt;" style="html=1;verticalAlign=bottom;endArrow=open;dashed=1;endSize=8;curved=0;rounded=0;exitX=0;exitY=1;exitDx=0;exitDy=-5;" edge="1" source="hMaNkUOU6OZyKy6Mbnef-10" parent="1" target="-QrxRBGIXTvyxB3OS5xk-2">
          <mxGeometry relative="1" as="geometry">
            <mxPoint x="-325" y="325" as="targetPoint" />
          </mxGeometry>
        </mxCell>
        <mxCell id="hMaNkUOU6OZyKy6Mbnef-25" value="AnnotationConfigUtils" style="shape=umlLifeline;perimeter=lifelinePerimeter;whiteSpace=wrap;html=1;container=1;dropTarget=0;collapsible=0;recursiveResize=0;outlineConnect=0;portConstraint=eastwest;newEdgeStyle={&quot;curved&quot;:0,&quot;rounded&quot;:0};fontSize=20;fontStyle=0" vertex="1" parent="1">
          <mxGeometry x="1110" y="120" width="210" height="850" as="geometry" />
        </mxCell>
        <mxCell id="hMaNkUOU6OZyKy6Mbnef-26" value="" style="html=1;points=[[0,0,0,0,5],[0,1,0,0,-5],[1,0,0,0,5],[1,1,0,0,-5]];perimeter=orthogonalPerimeter;outlineConnect=0;targetShapes=umlLifeline;portConstraint=eastwest;newEdgeStyle={&quot;curved&quot;:0,&quot;rounded&quot;:0};" vertex="1" parent="hMaNkUOU6OZyKy6Mbnef-25">
          <mxGeometry x="100" y="273.5" width="10" height="80" as="geometry" />
        </mxCell>
        <mxCell id="hMaNkUOU6OZyKy6Mbnef-29" value="AnnotationAwareOrderComparator&lt;div&gt;ContextAnnotationAutowireCandidateResolver&lt;/div&gt;&lt;div&gt;&lt;font style=&quot;color: rgb(255, 0, 0);&quot;&gt;&lt;b&gt;ConfigurationClassPostProcessor&lt;/b&gt;&lt;/font&gt;&lt;/div&gt;&lt;div&gt;&lt;b&gt;&lt;font style=&quot;color: rgb(255, 0, 0);&quot;&gt;AutowiredAnnotationBeanPostProcessor&lt;/font&gt;&lt;/b&gt;&lt;/div&gt;&lt;div&gt;&lt;b&gt;&lt;font style=&quot;color: rgb(255, 0, 0);&quot;&gt;CommonAnnotationBeanPostProcessor&lt;/font&gt;&lt;/b&gt;&lt;/div&gt;&lt;div&gt;EventListenerMethodProcessor&lt;/div&gt;&lt;div&gt;DefaultEventListenerFactory&lt;/div&gt;" style="text;html=1;align=left;verticalAlign=middle;whiteSpace=wrap;rounded=0;fontSize=20;" vertex="1" parent="1">
          <mxGeometry x="1234" y="350" width="420" height="190" as="geometry" />
        </mxCell>
        <mxCell id="hMaNkUOU6OZyKy6Mbnef-30" value="&lt;font&gt;ClassPathBeanDefinitionScanner&lt;/font&gt;" style="shape=umlLifeline;perimeter=lifelinePerimeter;whiteSpace=wrap;html=1;container=1;dropTarget=0;collapsible=0;recursiveResize=0;outlineConnect=0;portConstraint=eastwest;newEdgeStyle={&quot;curved&quot;:0,&quot;rounded&quot;:0};fontSize=20;fontStyle=0;fontColor=#FF0000;" vertex="1" parent="1">
          <mxGeometry x="1530" y="120" width="310" height="861" as="geometry" />
        </mxCell>
        <mxCell id="hMaNkUOU6OZyKy6Mbnef-31" value="registerAnnotationConfigProcessors()" style="html=1;verticalAlign=bottom;endArrow=block;curved=0;rounded=0;entryX=0;entryY=0;entryDx=0;entryDy=5;fontSize=20;" edge="1" parent="hMaNkUOU6OZyKy6Mbnef-30">
          <mxGeometry relative="1" as="geometry">
            <mxPoint x="155" y="279" as="sourcePoint" />
          </mxGeometry>
        </mxCell>
        <mxCell id="hMaNkUOU6OZyKy6Mbnef-32" value="return" style="html=1;verticalAlign=bottom;endArrow=open;dashed=1;endSize=8;curved=0;rounded=0;exitX=0;exitY=1;exitDx=0;exitDy=-5;fontSize=20;" edge="1" parent="hMaNkUOU6OZyKy6Mbnef-30">
          <mxGeometry relative="1" as="geometry">
            <mxPoint x="155" y="349" as="targetPoint" />
          </mxGeometry>
        </mxCell>
        <mxCell id="hMaNkUOU6OZyKy6Mbnef-33" value="" style="html=1;points=[[0,0,0,0,5],[0,1,0,0,-5],[1,0,0,0,5],[1,1,0,0,-5]];perimeter=orthogonalPerimeter;outlineConnect=0;targetShapes=umlLifeline;portConstraint=eastwest;newEdgeStyle={&quot;curved&quot;:0,&quot;rounded&quot;:0};" vertex="1" parent="hMaNkUOU6OZyKy6Mbnef-30">
          <mxGeometry x="150" y="449" width="10" height="80" as="geometry" />
        </mxCell>
        <mxCell id="hMaNkUOU6OZyKy6Mbnef-39" value="" style="html=1;points=[[0,0,0,0,5],[0,1,0,0,-5],[1,0,0,0,5],[1,1,0,0,-5]];perimeter=orthogonalPerimeter;outlineConnect=0;targetShapes=umlLifeline;portConstraint=eastwest;newEdgeStyle={&quot;curved&quot;:0,&quot;rounded&quot;:0};" vertex="1" parent="hMaNkUOU6OZyKy6Mbnef-30">
          <mxGeometry x="155" y="481" width="10" height="40" as="geometry" />
        </mxCell>
        <mxCell id="hMaNkUOU6OZyKy6Mbnef-40" value="&lt;font style=&quot;font-size: 20px;&quot;&gt;registerDefaultFilters()&lt;/font&gt;&lt;div&gt;&lt;font style=&quot;font-size: 20px;&quot;&gt;注册要扫描的注解：&lt;/font&gt;&lt;/div&gt;&lt;div&gt;&lt;font style=&quot;font-size: 20px;&quot;&gt;@Component&lt;/font&gt;&lt;/div&gt;&lt;div&gt;&lt;font style=&quot;font-size: 20px;&quot;&gt;@ManagedBean&lt;/font&gt;&lt;/div&gt;" style="html=1;align=left;spacingLeft=2;endArrow=block;rounded=0;edgeStyle=orthogonalEdgeStyle;curved=0;rounded=0;fontSize=18;" edge="1" target="hMaNkUOU6OZyKy6Mbnef-39" parent="hMaNkUOU6OZyKy6Mbnef-30">
          <mxGeometry relative="1" as="geometry">
            <mxPoint x="160" y="461" as="sourcePoint" />
            <Array as="points">
              <mxPoint x="190" y="491" />
            </Array>
          </mxGeometry>
        </mxCell>
      </root>
    </mxGraphModel>
  </diagram>
</mxfile>
